<svg width="60" height="14" viewBox="0 0 60 14" fill="none" xmlns="http://www.w3.org/2000/svg">
<path d="M-0.00923289 14V0.909091H5.39844C6.37855 0.909091 7.22443 1.10085 7.93608 1.48438C8.65199 1.86364 9.20384 2.39418 9.59162 3.07599C9.9794 3.75355 10.1733 4.5419 10.1733 5.44105C10.1733 6.34446 9.97514 7.13494 9.57884 7.8125C9.18679 8.4858 8.62642 9.00781 7.89773 9.37855C7.16903 9.74929 6.30398 9.93466 5.30256 9.93466H1.96591V7.44176H4.71449C5.19176 7.44176 5.5902 7.35866 5.9098 7.19247C6.23367 7.02628 6.47869 6.79403 6.64489 6.49574C6.81108 6.19318 6.89418 5.84162 6.89418 5.44105C6.89418 5.03622 6.81108 4.68679 6.64489 4.39276C6.47869 4.09446 6.23367 3.86435 5.9098 3.70241C5.58594 3.54048 5.1875 3.45952 4.71449 3.45952H3.15483V14H-0.00923289ZM11.733 14V0.909091H20.8608V3.47869H14.897V6.16335H20.3942V8.73935H14.897V11.4304H20.8608V14H11.733ZM22.8423 14V0.909091H28.25C29.2301 0.909091 30.076 1.08594 30.7876 1.43963C31.5036 1.78906 32.0554 2.2919 32.4432 2.94815C32.831 3.60014 33.0249 4.37358 33.0249 5.26847C33.0249 6.17614 32.8267 6.94744 32.4304 7.58239C32.0341 8.21307 31.4716 8.6946 30.7429 9.02699C30.0142 9.35511 29.1513 9.51918 28.1541 9.51918H24.7344V7.02628H27.5661C28.0433 7.02628 28.4418 6.96449 28.7614 6.84091C29.0852 6.71307 29.3303 6.52131 29.4964 6.26562C29.6626 6.00568 29.7457 5.6733 29.7457 5.26847C29.7457 4.86364 29.6626 4.52912 29.4964 4.26491C29.3303 3.99645 29.0852 3.79616 28.7614 3.66406C28.4375 3.5277 28.0391 3.45952 27.5661 3.45952H26.0064V14H22.8423ZM30.2124 8.01705L33.4723 14H30.0206L26.8246 8.01705H30.2124ZM34.7603 14V0.909091H37.9244V6.4446H38.0969L42.4244 0.909091H46.1509L41.5103 6.75142L46.234 14H42.4499L39.19 8.8544L37.9244 10.4524V14H34.7603ZM50.2306 14H46.8301L51.247 0.909091H55.4593L59.8762 14H56.4757L53.4011 4.20739H53.2988L50.2306 14ZM49.7768 8.84801H56.8848V11.2514H49.7768V8.84801Z" fill="#333333"/>
</svg>
